HIERARCHY
ROOT Hips
{
	OFFSET 0.000000 0.000000 0.000000
	CHANNELS 6 Xposition Yposition Zposition Xrotation Yrotation Zrotation
	JOINT LeftUpLeg_virtual
	{
		OFFSET 0.000000 0.000000 0.000000
		CHANNELS 3 Xrotation Yrotation Zrotation
		JOINT LeftUpLeg
		{
			OFFSET 11.394100 -6.187798 -0.413800
			CHANNELS 3 Xrotation Yrotation Zrotation
			JOINT LeftLeg
			{
				OFFSET 0.430247 -32.302673 3.732800
				CHANNELS 3 Xrotation Yrotation Zrotation
				JOINT LeftFoot
				{
					OFFSET -0.430247 -48.264931 -6.423300
					CHANNELS 3 Xrotation Yrotation Zrotation
					JOINT LeftToeBase
					{
						OFFSET 4.230900 -16.068199 23.438400
						CHANNELS 3 Xrotation Yrotation Zrotation
						JOINT LeftToe_End
						{
							OFFSET 4.510700 0.695400 19.974600
							CHANNELS 3 Xrotation Yrotation Zrotation
							End Site
							{
								OFFSET 0 0 0
							}
						}
					}
				}
			}
		}
	}
	JOINT RightUpLeg_virtual
	{
		OFFSET 0.000000 0.000000 0.000000
		CHANNELS 3 Xrotation Yrotation Zrotation
		JOINT RightUpLeg
		{
			OFFSET -11.333700 -6.187798 -0.413800
			CHANNELS 3 Xrotation Yrotation Zrotation
			JOINT RightLeg
			{
				OFFSET -0.430392 -32.302628 3.733000
				CHANNELS 3 Xrotation Yrotation Zrotation
				JOINT RightFoot
				{
					OFFSET 0.430392 -48.264973 -6.423500
					CHANNELS 3 Xrotation Yrotation Zrotation
					JOINT RightToeBase
					{
						OFFSET -4.230900 -16.068199 23.438400
						CHANNELS 3 Xrotation Yrotation Zrotation
						JOINT RightToe_End
						{
							OFFSET -4.510700 0.695400 19.974600
							CHANNELS 3 Xrotation Yrotation Zrotation
							End Site
							{
								OFFSET 0 0 0
							}
						}
					}
				}
			}
		}
	}
	JOINT Spine_virtual
	{
		OFFSET 0.000000 0.000000 0.000000
		CHANNELS 3 Xrotation Yrotation Zrotation
		JOINT Spine
		{
			OFFSET -0.002400 12.777504 0.315300
			CHANNELS 3 Xrotation Yrotation Zrotation
			JOINT Spine1
			{
				OFFSET -0.002067 5.816869 0.032633
				CHANNELS 3 Xrotation Yrotation Zrotation
				JOINT Spine1_split
				{
					OFFSET -0.002067 5.816869 0.032633
					CHANNELS 3 Xrotation Yrotation Zrotation
					JOINT Spine2
					{
						OFFSET -0.002067 5.816869 0.032633
						CHANNELS 3 Xrotation Yrotation Zrotation
						JOINT Neck_virtual
						{
							OFFSET 0.000000 0.000000 0.000000
							CHANNELS 3 Xrotation Yrotation Zrotation
							JOINT Neck
							{
								OFFSET -0.003700 21.199493 -0.826900
								CHANNELS 3 Xrotation Yrotation Zrotation
								JOINT Head
								{
									OFFSET 0.000000 20.442200 4.834800
									CHANNELS 3 Xrotation Yrotation Zrotation
									JOINT HeadTop_End
									{
										OFFSET 0.000000 34.668396 4.968400
										CHANNELS 3 Xrotation Yrotation Zrotation
										End Site
										{
											OFFSET 0 0 0
										}
									}
								}
							}
						}
						JOINT LeftShoulder_virtual
						{
							OFFSET 0.000000 0.000000 0.000000
							CHANNELS 3 Xrotation Yrotation Zrotation
							JOINT LeftShoulder
							{
								OFFSET 3.288150 8.794197 -1.372250
								CHANNELS 3 Xrotation Yrotation Zrotation
								JOINT LeftShoulder_split
								{
									OFFSET 3.288150 8.794197 -1.372250
									CHANNELS 3 Xrotation Yrotation Zrotation
									JOINT LeftArm
									{
										OFFSET 11.953299 -2.279007 -0.146200
										CHANNELS 3 Xrotation Yrotation Zrotation
										JOINT LeftForeArm
										{
											OFFSET 18.448900 0.000000 0.000000
											CHANNELS 3 Xrotation Yrotation Zrotation
											JOINT LeftHand
											{
												OFFSET 29.527798 0.000000 0.000000
												CHANNELS 3 Xrotation Yrotation Zrotation
												End Site
												{
													OFFSET 0 0 0
												}
											}
										}
									}
								}
							}
						}
						JOINT RightShoulder_virtual
						{
							OFFSET 0.000000 0.000000 0.000000
							CHANNELS 3 Xrotation Yrotation Zrotation
							JOINT RightShoulder
							{
								OFFSET -3.249400 8.794197 -1.372250
								CHANNELS 3 Xrotation Yrotation Zrotation
								JOINT RightShoulder_split
								{
									OFFSET -3.249400 8.794197 -1.372250
									CHANNELS 3 Xrotation Yrotation Zrotation
									JOINT RightArm
									{
										OFFSET -11.953299 -2.279007 -0.146200
										CHANNELS 3 Xrotation Yrotation Zrotation
										JOINT RightForeArm
										{
											OFFSET -18.448900 0.000000 0.000000
											CHANNELS 3 Xrotation Yrotation Zrotation
											JOINT RightHand
											{
												OFFSET -29.527802 0.000000 0.000000
												CHANNELS 3 Xrotation Yrotation Zrotation
												End Site
												{
													OFFSET 0 0 0
												}
											}
										}
									}
								}
							}
						}
					}
				}
			}
		}
	}
}
MOTION
Frames: 4
Frame Time: 0.03333333
5.759269 144.512482 -3.497656 0.000000 0.000000 0.000000 4.274891 11.121908 -0.558173 -61.359380 -0.015945 0.877571 64.090213 10.380069 -0.538467 23.606083 3.273106 -11.803199 -8.945010 4.649251 2.149190 0.000000 0.000000 0.000000 5.495693 12.228234 -0.754834 -33.965161 -7.739826 -14.017117 51.792286 9.915212 3.750155 2.827231 -22.657288 12.645215 -11.364849 7.857564 0.689899 0.000000 0.000000 0.000000 5.032976 11.898330 -0.344671 -6.959528 0.439084 12.964835 -1.751520 3.412026 -1.095913 0.074412 -0.631806 -0.072198 0.000000 0.000000 0.000000 8.464271 4.457007 0.436983 -11.247478 14.125550 -6.712477 -57.405527 -45.976401 -35.819554 0.000000 0.000000 0.000000 -0.951947 3.743698 -1.237899 14.640480 -9.196038 42.299628 6.489933 5.551835 0.822278 -68.503977 -21.922896 5.652790 -32.441220 -17.483449 3.725817 0.000000 0.000000 0.000000 1.001927 3.081836 0.475724 -8.887060 -20.278087 -48.356524 -5.102877 3.885558 -3.162931 -81.420984 26.527539 3.196609 -44.541422 17.618840 38.521396 0.000000 0.000000 0.000000 
5.556562 145.082703 -6.077997 0.000000 0.000000 0.000000 3.890039 9.217760 -0.091677 -61.089150 -0.809098 -0.150234 66.112037 9.147262 0.057965 23.445946 1.500636 -13.800401 -8.804326 4.258745 2.824337 0.000000 0.000000 0.000000 5.463479 10.450418 -0.333515 -33.298262 -8.430239 -13.349243 56.913135 10.931989 3.317200 4.818088 -22.860819 11.281824 -11.859105 7.838895 2.543549 0.000000 0.000000 0.000000 5.454108 10.927038 0.235344 -7.528077 0.329784 12.670322 -2.031869 3.537764 -1.127059 0.068255 -0.585275 -0.137426 0.000000 0.000000 0.000000 8.491214 4.559585 0.301313 -11.386818 13.508740 -5.959701 -56.156203 -46.363396 -35.063572 0.000000 0.000000 0.000000 -0.924284 3.797768 -1.099495 14.200039 -9.182985 43.027866 4.844572 5.738854 0.412115 -70.437227 -24.469417 3.886431 -31.284080 -18.845989 4.750453 0.000000 0.000000 0.000000 1.402388 3.187756 0.505965 -9.360356 -20.187927 -48.980280 -3.285337 2.855919 -3.001851 -84.458458 24.608804 5.061214 -46.625221 19.099837 39.539910 0.000000 0.000000 0.000000 
5.259401 146.697693 -9.786184 0.000000 0.000000 0.000000 3.005084 5.194358 0.458591 -59.150135 -1.634096 -1.844653 67.301631 7.392918 0.677914 20.942840 0.087401 -14.254175 -8.995300 3.615124 3.388485 0.000000 0.000000 0.000000 5.126997 6.524310 0.192519 -29.207631 -8.609213 -12.117179 57.500904 11.830000 2.640661 9.627957 -22.121808 11.938792 -20.785698 7.208025 5.148162 0.000000 0.000000 0.000000 5.547772 8.194969 0.590518 -7.362142 1.169012 11.959707 -2.011175 3.877215 -0.762695 0.091122 -0.469660 -0.203060 0.000000 0.000000 0.000000 8.354071 4.971594 0.565490 -11.993264 12.489488 -4.580488 -53.733682 -47.230113 -34.094621 0.000000 0.000000 0.000000 -0.899612 4.061579 -0.616192 13.377393 -7.172887 44.001503 3.667178 6.461081 -1.035608 -76.881101 -25.074741 -0.496318 -31.780717 -22.312449 5.213157 0.000000 0.000000 0.000000 1.693278 3.562592 0.962200 -9.951751 -20.111548 -49.928751 -2.045815 2.145622 -2.617166 -87.646142 22.688533 7.678208 -47.443075 19.000183 38.641570 0.000000 0.000000 0.000000 
4.624570 148.983688 -13.485125 0.000000 0.000000 0.000000 2.197916 -0.160175 0.947548 -56.623853 -2.255080 -3.355984 67.260465 5.977132 0.732829 16.951971 -0.142070 -12.313933 -6.153307 3.066470 2.410542 0.000000 0.000000 0.000000 4.430707 -0.014979 0.673356 -22.919214 -8.467870 -10.832444 52.182679 12.415827 1.874392 13.579740 -20.806720 12.886417 -32.316921 5.941743 7.146507 0.000000 0.000000 0.000000 5.396639 3.079725 0.585156 -6.443330 2.890057 11.091647 -1.670143 4.445726 -0.086971 0.080792 -0.359488 -0.254873 0.000000 0.000000 0.000000 7.878931 5.704209 1.130464 -12.961091 11.191618 -2.772595 -50.546398 -48.263059 -33.204398 0.000000 0.000000 0.000000 -0.644392 4.570412 0.096440 12.312758 -3.623543 44.909740 3.304984 6.865111 -2.186269 -84.494201 -23.082085 -5.393077 -33.773069 -26.462084 5.168800 0.000000 0.000000 0.000000 1.917880 4.266070 1.681520 -10.445257 -19.805530 -51.143425 -1.945045 2.643829 -2.400575 -90.191924 21.229304 10.745377 -46.727206 17.448444 35.845632 0.000000 0.000000 0.000000 
